Coordinates
version=1
nRows=11
nColumns=36
inDegrees=yes

Units are S.I. units (second, meters, Newtons, ...)
If the header above contains a line with 'inDegrees', this indicates whether rotational values are in degrees (yes) or radians (no).

endheader
time	pelvis_tilt	pelvis_list	pelvis_rotation	pelvis_tx	pelvis_ty	pelvis_tz	hip_flexion_r	hip_adduction_r	hip_rotation_r	knee_angle_r	knee_angle_r_beta	ankle_angle_r	subtalar_angle_r	mtp_angle_r	hip_flexion_l	hip_adduction_l	hip_rotation_l	knee_angle_l	knee_angle_l_beta	ankle_angle_l	subtalar_angle_l	mtp_angle_l	lumbar_extension	lumbar_bending	lumbar_rotation	arm_flex_r	arm_add_r	arm_rot_r	elbow_flex_r	pro_sup_r	arm_flex_l	arm_add_l	arm_rot_l	elbow_flex_l	pro_sup_l
      1.33750000	    -24.62747415	     -0.63929995	      3.72254299	     -0.73441246	      1.16454894	     -0.06806418	     32.95754429	      1.76188942	      5.99697590	     51.93520910	      0.90644040	     32.11252914	    -24.87838711	     -7.49999987	     38.80186585	      0.93744595	      6.95302771	     59.40705139	      1.03684865	     28.27699668	    -15.31174070	     -7.49999987	     -9.08632413	      0.80211556	     -2.11717824	    112.81374860	     -6.83909282	     18.59928762	     87.08555031	     81.21740721	    122.84787055	    -10.51866210	     42.92685615	     72.63131963	     68.76048808
      1.34166670	    -23.89179628	     -0.42656324	      3.36181450	     -0.71569587	      1.17398429	     -0.07350664	     30.01304900	      1.43659400	      5.97903883	     49.57602299	      0.86526483	     30.14745788	    -24.49953062	     -7.49999987	     35.94289033	      0.72517736	      6.39643023	     57.06579637	      0.99598604	     27.61558345	    -14.45161888	     -7.49999987	     -8.27630013	      0.75825805	     -1.66961188	    111.33815372	     -6.74330302	     18.30089686	     88.89897293	     81.41412600	    122.01947011	    -11.47782403	     43.88552120	     74.69635272	     69.18464511
      1.34583330	    -22.73379693	     -0.39048701	      3.34902337	     -0.70432853	      1.18087242	     -0.07417450	     26.73216929	      1.20568169	      5.68711367	     47.23167554	      0.82434825	     28.72101506	    -24.52347382	     -7.49999987	     32.84313258	      0.43946516	      5.91481712	     54.83769728	      0.95709837	     26.69251978	    -13.55299307	     -7.49999987	     -7.51111312	      0.59961173	     -1.11396152	    109.80583554	     -7.43326220	     18.21748296	     89.92201256	     81.65275830	    120.73335541	    -12.46795403	     45.52003015	     75.93259864	     69.65846138
      1.35000000	    -22.07410199	     -0.20533385	      3.22324666	     -0.70450406	      1.18390918	     -0.07402217	     25.05093916	      0.90658829	      5.68616454	     45.80637619	      0.79947208	     27.38202711	    -25.02491616	     -7.49999987	     30.91099816	      0.43102680	      5.54320997	     52.91991690	      0.92362679	     25.76224618	    -13.33889509	     -7.49999987	     -6.88949482	      0.33074553	     -0.44872060	    109.60210205	     -7.91114938	     18.47064325	     89.73694242	     81.87769811	    120.92910590	    -13.37209622	     46.73121373	     76.35672891	     70.05756803
      1.35416670	    -20.89436844	      0.13165413	      3.28423682	     -0.68730712	      1.19206029	     -0.07904356	     22.03307448	      0.32417848	      5.84706641	     43.84871473	      0.76530444	     25.58298056	    -25.52400146	     -7.49999987	     27.99862732	      0.76908108	      5.17971937	     51.20005336	      0.89360951	     25.18924834	    -12.77728676	     -7.49999987	     -7.04895107	      0.38299896	     -0.26120613	    108.89833485	     -8.66015709	     19.22766291	     90.80369622	     82.41893782	    121.19490212	    -14.73110670	     48.46069842	     77.15235414	     71.02488592
      1.35833330	    -20.61195738	      0.32393364	      3.34154671	     -0.68668331	      1.19907354	     -0.07929206	     21.06485684	     -0.36456354	      5.35324132	     42.57762881	      0.74311981	     24.27548382	    -25.04127715	     -7.49999987	     27.08317840	      1.00317010	      5.02838189	     50.53671838	      0.88203213	     23.81425695	    -12.42194670	     -7.49999987	     -6.33449877	      0.48586473	      1.60060610	    109.05563018	    -10.55232227	     20.81557498	     91.78648903	     82.97829012	    120.11648592	    -17.11500502	     49.84300811	     80.38690623	     72.27106785
      1.36250000	    -19.92700359	      0.45342829	      3.81178401	     -0.67540585	      1.20312356	     -0.07949063	     18.99910199	     -0.98384409	      4.51813025	     40.51900700	      0.70719008	     22.66747578	    -24.57103194	     -7.49999987	     25.52610399	      1.03423427	      5.13462877	     49.46391254	      0.86330813	     22.82804936	    -12.19835474	     -7.49999987	     -5.90292245	      0.60507306	      1.29558154	    109.04285448	    -10.39740560	     21.57002652	     91.61759993	     83.25824706	    120.29336166	    -18.37080563	     52.56322977	     80.44015362	     73.41013661
      1.36666670	    -19.89326921	      0.57246939	      4.44637715	     -0.67502628	      1.20947361	     -0.08035291	     18.23895708	     -1.50870286	      3.38746047	     39.31791493	      0.68622707	     21.61023362	    -24.70702531	     -7.49999987	     25.04330088	      1.27015050	      5.47785797	     49.00712398	      0.85533567	     21.56308313	    -12.09176396	     -7.49999987	     -4.97465825	      0.76505976	      2.51028615	    109.77546117	    -11.15423183	     22.01427987	     92.11969392	     83.80006957	    116.52933086	    -24.11210124	     44.38733328	     91.83717477	     75.60494888
      1.37083330	    -19.65796321	      0.45311397	      4.62211384	     -0.67454890	      1.21629599	     -0.08063298	     17.97105902	     -1.70824490	      2.46812131	     38.99023757	      0.68050802	     19.49981319	    -24.37885141	     -7.49999987	     24.92814183	      1.16563119	      5.73498493	     49.13708575	      0.85760393	     19.66695767	    -11.61726722	     -7.49999987	     -4.95709299	      1.02558924	      2.92251741	    111.52750244	    -11.32514013	     23.05704534	     91.25995660	     84.30262093	    114.37002754	    -28.20362469	     39.20945217	     97.76958938	     76.94596200
      1.37500000	    -19.60685232	      0.39609835	      4.68246964	     -0.66774927	      1.22253632	     -0.07719015	     17.52960375	     -1.65547191	      2.02900265	     38.05185599	      0.66413017	     17.70670200	    -24.29263769	     -7.49999987	     24.50155208	      0.74573124	      5.59071993	     48.45887082	      0.84576685	     18.10178488	    -10.47114038	     -7.49999987	     -4.70358820	      0.80106039	      2.89406959	    111.64773941	    -12.36287029	     23.13934723	     92.15610559	     84.67182985	    113.23809483	    -31.13358408	     36.00188598	    100.23461208	     77.48221679
      1.37916670	    -19.62745545	      0.14937842	      4.33838081	     -0.65598519	      1.22235018	     -0.07745542	     16.90368648	     -1.38114001	      1.62960668	     37.45463441	      0.65370669	     15.98439951	    -24.35613320	     -7.49999987	     23.79806027	      0.01652055	      5.10268926	     48.01935893	      0.83809592	     17.56136240	     -8.82129175	     -7.49999987	     -3.64566482	      1.59992875	      3.32320959	    111.08371896	    -12.14148724	     23.96487923	     91.25313978	     85.89737505	    109.66365407	    -33.36974303	     31.87251714	    101.26452182	     79.06542314
